<svg xmlns="http://www.w3.org/2000/svg" width="15" height="15" viewBox="0 0 15 15"><g><g><path fill="#838d8f" d="M1.252 0C.569 0 0 .613 0 1.29v3.242h4.837c.762-.552 1.57-1.024 2.545-1.024.945 0 1.798.472 2.545 1.024H15V1.29C15 .613 14.39 0 13.66 0zm12.21 3.52h-1.996c-.29 0-.533-.2-.533-.436V1.452c0-.237.243-.425.533-.425h1.996c.29 0 .516.188.516.425v1.632c0 .237-.226.436-.516.436zM9.927 7.708c0-1.463-1.143-2.64-2.545-2.64s-2.545 1.177-2.545 2.64 1.143 2.655 2.545 2.655 2.545-1.192 2.545-2.655zm1.715-.063c0 2.32-1.854 4.197-4.133 4.197-2.28 0-4.135-1.876-4.135-4.197 0-.334.032-.668.126-.986H0v6.998C0 14.39.569 15 1.252 15h12.5c.681 0 1.248-.61 1.248-1.343V6.66h-3.732c.344.318.374.652.374.986z"/></g></g></svg>