<svg xmlns="http://www.w3.org/2000/svg" width="18" height="13" viewBox="0 0 18 13"><g><g><path fill="#838d8f" d="M13.953 2.28c-.011-.005-.023-.018-.034-.029a3.155 3.155 0 0 0-2.309-.836l-.027-.06c.006-.006.011-.006.017-.006.802-.176 1.277-.358 1.419-.556.049-.16-.01-.248-.186-.27-.404.05-.775.132-1.108.26.42-.26.584-.441.491-.535-.414.011-.862.215-1.332.617.175-.287.24-.441.197-.469a3.75 3.75 0 0 0-.59.48c-.355.38-.638.732-.857 1.052l-.01.027a9.202 9.202 0 0 0-1.19 2.654l-.088.067-.016.015a4.417 4.417 0 0 0-1.228-1.025 14.77 14.77 0 0 0-2.02-1.028A17.538 17.538 0 0 0 2.51 1.603c-.005.93.47 1.673 1.414 2.213v.016a3.138 3.138 0 0 0-.966.138c.06.865.698 1.46 1.91 1.79l-.006.016a1.42 1.42 0 0 0-1.173.463c.398.749 1.103 1.106 2.124 1.079-.203.1-.36.208-.464.33-.186.188-.246.408-.186.661.218.38.611.556 1.19.529l.032.038-.016.017c-.999.991-2.205 1.437-3.62 1.343l-.021.011c-.862-.006-1.785-.402-2.784-1.194C.95 10.439 2.282 11.44 3.93 12.07c1.889.6 3.778.644 5.66.131h.033c1.83-.506 3.38-1.547 4.657-3.121.59-.826.96-1.613 1.108-2.368.955.033 1.643-.23 2.069-.792l-.01-.017c-.318.11-.94.078-1.863-.104v-.1c0-.005 0-.005.006 0 1.01-.11 1.605-.423 1.796-.942a2.931 2.931 0 0 1-2.086.023c-.125-.915-.572-1.746-1.347-2.5z"/></g></g></svg>